<svg xmlns="http://www.w3.org/2000/svg" xmlns:xlink="http://www.w3.org/1999/xlink" width="300" zoomAndPan="magnify" viewBox="0 0 224.87999 95.999999" height="128" preserveAspectRatio="xMidYMid meet" version="1.0"><defs><g/></defs><g fill="#eae6e5" fill-opacity="0.502"><g transform="translate(9.508399, 71.425853)"><g><path d="M 3.921875 -28.90625 C 3.921875 -34.507812 4.925781 -39.617188 6.9375 -44.234375 C 8.945312 -48.859375 11.898438 -52.578125 15.796875 -55.390625 C 19.703125 -58.203125 24.195312 -59.609375 29.28125 -59.609375 C 36.9375 -59.609375 43.109375 -56.898438 47.796875 -51.484375 C 52.492188 -46.078125 54.84375 -38.988281 54.84375 -30.21875 C 54.84375 -27.007812 54.519531 -23.894531 53.875 -20.875 C 53.238281 -17.851562 52.238281 -14.988281 50.875 -12.28125 C 49.519531 -9.582031 47.867188 -7.21875 45.921875 -5.1875 C 43.984375 -3.164062 41.597656 -1.554688 38.765625 -0.359375 C 35.941406 0.828125 32.859375 1.421875 29.515625 1.421875 C 21.554688 1.421875 15.300781 -1.347656 10.75 -6.890625 C 6.195312 -12.429688 3.921875 -19.769531 3.921875 -28.90625 Z M 14.84375 -29.796875 C 14.84375 -24.441406 15.367188 -19.609375 16.421875 -15.296875 C 17.484375 -10.992188 19.125 -7.503906 21.34375 -4.828125 C 23.5625 -2.148438 26.207031 -0.8125 29.28125 -0.8125 C 33.84375 -0.8125 37.421875 -3.460938 40.015625 -8.765625 C 42.609375 -14.066406 43.90625 -21.109375 43.90625 -29.890625 C 43.90625 -39.015625 42.632812 -45.875 40.09375 -50.46875 C 37.550781 -55.0625 34.023438 -57.359375 29.515625 -57.359375 C 27.941406 -57.359375 26.441406 -57.03125 25.015625 -56.375 C 23.585938 -55.726562 22.25 -54.6875 21 -53.25 C 19.75 -51.8125 18.675781 -50.035156 17.78125 -47.921875 C 16.882812 -45.816406 16.171875 -43.210938 15.640625 -40.109375 C 15.109375 -37.015625 14.84375 -33.578125 14.84375 -29.796875 Z M 16.46875 7.046875 C 19.789062 4.328125 23.21875 2.96875 26.75 2.96875 C 28.457031 2.96875 30.113281 3.238281 31.71875 3.78125 C 33.320312 4.332031 34.664062 4.945312 35.75 5.625 C 40.726562 8.832031 43.953125 10.84375 45.421875 11.65625 C 47.296875 12.71875 48.925781 13.25 50.3125 13.25 C 51.664062 13.25 52.679688 12.835938 53.359375 12.015625 C 54.046875 11.203125 54.390625 10.269531 54.390625 9.21875 C 54.390625 9.164062 54.378906 9.066406 54.359375 8.921875 C 54.347656 8.785156 54.34375 8.691406 54.34375 8.640625 L 54.21875 8.6875 C 53.65625 9.664062 52.757812 10.15625 51.53125 10.15625 C 50.226562 10.15625 49.179688 9.753906 48.390625 8.953125 C 47.609375 8.148438 47.21875 7.148438 47.21875 5.953125 C 47.21875 4.648438 47.628906 3.597656 48.453125 2.796875 C 49.285156 1.992188 50.328125 1.59375 51.578125 1.59375 C 53.234375 1.59375 54.515625 2.222656 55.421875 3.484375 C 56.335938 4.742188 56.796875 6.300781 56.796875 8.15625 C 56.796875 9.21875 56.554688 10.332031 56.078125 11.5 C 55.609375 12.664062 54.9375 13.765625 54.0625 14.796875 C 53.195312 15.828125 52.050781 16.679688 50.625 17.359375 C 49.195312 18.046875 47.640625 18.390625 45.953125 18.390625 C 44.785156 18.390625 43.832031 18.328125 43.09375 18.203125 C 42.363281 18.078125 41.253906 17.703125 39.765625 17.078125 C 38.285156 16.453125 36.457031 15.503906 34.28125 14.234375 L 26.984375 9.65625 C 26.171875 9.164062 25.269531 8.71875 24.28125 8.3125 C 23.289062 7.90625 22.425781 7.703125 21.6875 7.703125 C 20.0625 7.703125 18.59375 8.03125 17.28125 8.6875 Z M 16.46875 7.046875 "/></g></g></g><g fill="#eae6e5" fill-opacity="1"><g transform="translate(7.589486, 69.50694)"><g><path d="M 3.921875 -28.90625 C 3.921875 -34.507812 4.925781 -39.617188 6.9375 -44.234375 C 8.945312 -48.859375 11.898438 -52.578125 15.796875 -55.390625 C 19.703125 -58.203125 24.195312 -59.609375 29.28125 -59.609375 C 36.9375 -59.609375 43.109375 -56.898438 47.796875 -51.484375 C 52.492188 -46.078125 54.84375 -38.988281 54.84375 -30.21875 C 54.84375 -27.007812 54.519531 -23.894531 53.875 -20.875 C 53.238281 -17.851562 52.238281 -14.988281 50.875 -12.28125 C 49.519531 -9.582031 47.867188 -7.21875 45.921875 -5.1875 C 43.984375 -3.164062 41.597656 -1.554688 38.765625 -0.359375 C 35.941406 0.828125 32.859375 1.421875 29.515625 1.421875 C 21.554688 1.421875 15.300781 -1.347656 10.75 -6.890625 C 6.195312 -12.429688 3.921875 -19.769531 3.921875 -28.90625 Z M 14.84375 -29.796875 C 14.84375 -24.441406 15.367188 -19.609375 16.421875 -15.296875 C 17.484375 -10.992188 19.125 -7.503906 21.34375 -4.828125 C 23.5625 -2.148438 26.207031 -0.8125 29.28125 -0.8125 C 33.84375 -0.8125 37.421875 -3.460938 40.015625 -8.765625 C 42.609375 -14.066406 43.90625 -21.109375 43.90625 -29.890625 C 43.90625 -39.015625 42.632812 -45.875 40.09375 -50.46875 C 37.550781 -55.0625 34.023438 -57.359375 29.515625 -57.359375 C 27.941406 -57.359375 26.441406 -57.03125 25.015625 -56.375 C 23.585938 -55.726562 22.25 -54.6875 21 -53.25 C 19.75 -51.8125 18.675781 -50.035156 17.78125 -47.921875 C 16.882812 -45.816406 16.171875 -43.210938 15.640625 -40.109375 C 15.109375 -37.015625 14.84375 -33.578125 14.84375 -29.796875 Z M 16.46875 7.046875 C 19.789062 4.328125 23.21875 2.96875 26.75 2.96875 C 28.457031 2.96875 30.113281 3.238281 31.71875 3.78125 C 33.320312 4.332031 34.664062 4.945312 35.75 5.625 C 40.726562 8.832031 43.953125 10.84375 45.421875 11.65625 C 47.296875 12.71875 48.925781 13.25 50.3125 13.25 C 51.664062 13.25 52.679688 12.835938 53.359375 12.015625 C 54.046875 11.203125 54.390625 10.269531 54.390625 9.21875 C 54.390625 9.164062 54.378906 9.066406 54.359375 8.921875 C 54.347656 8.785156 54.34375 8.691406 54.34375 8.640625 L 54.21875 8.6875 C 53.65625 9.664062 52.757812 10.15625 51.53125 10.15625 C 50.226562 10.15625 49.179688 9.753906 48.390625 8.953125 C 47.609375 8.148438 47.21875 7.148438 47.21875 5.953125 C 47.21875 4.648438 47.628906 3.597656 48.453125 2.796875 C 49.285156 1.992188 50.328125 1.59375 51.578125 1.59375 C 53.234375 1.59375 54.515625 2.222656 55.421875 3.484375 C 56.335938 4.742188 56.796875 6.300781 56.796875 8.15625 C 56.796875 9.21875 56.554688 10.332031 56.078125 11.5 C 55.609375 12.664062 54.9375 13.765625 54.0625 14.796875 C 53.195312 15.828125 52.050781 16.679688 50.625 17.359375 C 49.195312 18.046875 47.640625 18.390625 45.953125 18.390625 C 44.785156 18.390625 43.832031 18.328125 43.09375 18.203125 C 42.363281 18.078125 41.253906 17.703125 39.765625 17.078125 C 38.285156 16.453125 36.457031 15.503906 34.28125 14.234375 L 26.984375 9.65625 C 26.171875 9.164062 25.269531 8.71875 24.28125 8.3125 C 23.289062 7.90625 22.425781 7.703125 21.6875 7.703125 C 20.0625 7.703125 18.59375 8.03125 17.28125 8.6875 Z M 16.46875 7.046875 "/></g></g></g><g fill="#eae6e5" fill-opacity="0.502"><g transform="translate(67.376678, 55.66527)"><g><path d="M 0.703125 -18.484375 L 0.703125 -19.296875 L 4.875 -19.75 L 7.703125 -20.484375 L 8.078125 -19.90625 L 8.078125 -5.46875 C 8.078125 -4.675781 8.160156 -4 8.328125 -3.4375 C 8.492188 -2.875 8.679688 -2.457031 8.890625 -2.1875 C 9.097656 -1.914062 9.359375 -1.703125 9.671875 -1.546875 C 9.984375 -1.390625 10.222656 -1.300781 10.390625 -1.28125 C 10.566406 -1.269531 10.765625 -1.265625 10.984375 -1.265625 C 11.910156 -1.265625 12.765625 -1.851562 13.546875 -3.03125 C 14.328125 -4.207031 14.71875 -5.65625 14.71875 -7.375 L 14.71875 -18.484375 L 12.265625 -18.484375 L 12.265625 -19.296875 L 16.4375 -19.75 L 19.265625 -20.484375 L 19.625 -19.90625 L 19.625 -1.015625 L 21.6875 -0.8125 L 21.6875 0 L 15.40625 0 L 14.796875 -3.078125 L 14.71875 -3.078125 C 14.375 -2.578125 14.046875 -2.148438 13.734375 -1.796875 C 13.429688 -1.441406 13.046875 -1.0625 12.578125 -0.65625 C 12.109375 -0.25 11.570312 0.0546875 10.96875 0.265625 C 10.363281 0.484375 9.710938 0.59375 9.015625 0.59375 C 8.535156 0.59375 8.066406 0.550781 7.609375 0.46875 C 7.160156 0.394531 6.648438 0.222656 6.078125 -0.046875 C 5.515625 -0.316406 5.03125 -0.679688 4.625 -1.140625 C 4.21875 -1.609375 3.867188 -2.257812 3.578125 -3.09375 C 3.296875 -3.925781 3.15625 -4.898438 3.15625 -6.015625 L 3.15625 -18.484375 Z M 0.703125 -18.484375 "/></g></g></g><g fill="#eae6e5" fill-opacity="0.502"><g transform="translate(90.468302, 55.66527)"><g><path d="M 1.140625 -18.484375 L 1.140625 -19.296875 L 5.328125 -19.75 L 8.140625 -20.484375 L 8.5 -19.90625 L 8.5 -1.015625 L 10.5625 -0.8125 L 10.5625 0 L 1.546875 0 L 1.546875 -0.8125 L 3.59375 -1.015625 L 3.59375 -18.484375 Z M 3.328125 -27.578125 C 3.328125 -27.953125 3.394531 -28.300781 3.53125 -28.625 C 3.664062 -28.945312 3.851562 -29.226562 4.09375 -29.46875 C 4.34375 -29.707031 4.625 -29.890625 4.9375 -30.015625 C 5.257812 -30.148438 5.601562 -30.21875 5.96875 -30.21875 C 6.320312 -30.21875 6.660156 -30.148438 6.984375 -30.015625 C 7.304688 -29.878906 7.585938 -29.691406 7.828125 -29.453125 C 8.078125 -29.210938 8.269531 -28.929688 8.40625 -28.609375 C 8.550781 -28.285156 8.625 -27.941406 8.625 -27.578125 C 8.625 -27.222656 8.550781 -26.882812 8.40625 -26.5625 C 8.269531 -26.238281 8.082031 -25.953125 7.84375 -25.703125 C 7.601562 -25.460938 7.320312 -25.269531 7 -25.125 C 6.675781 -24.988281 6.332031 -24.921875 5.96875 -24.921875 C 5.59375 -24.921875 5.242188 -24.988281 4.921875 -25.125 C 4.597656 -25.269531 4.316406 -25.460938 4.078125 -25.703125 C 3.835938 -25.941406 3.648438 -26.222656 3.515625 -26.546875 C 3.390625 -26.867188 3.328125 -27.210938 3.328125 -27.578125 Z M 3.328125 -27.578125 "/></g></g></g><g fill="#eae6e5" fill-opacity="0.502"><g transform="translate(102.437124, 55.66527)"><g><path d="M 1.625 -9.921875 C 1.625 -10.910156 1.734375 -11.894531 1.953125 -12.875 C 2.179688 -13.863281 2.546875 -14.828125 3.046875 -15.765625 C 3.546875 -16.710938 4.148438 -17.546875 4.859375 -18.265625 C 5.578125 -18.992188 6.460938 -19.578125 7.515625 -20.015625 C 8.578125 -20.460938 9.726562 -20.6875 10.96875 -20.6875 C 12.820312 -20.6875 14.359375 -20.164062 15.578125 -19.125 C 16.796875 -18.082031 17.40625 -16.84375 17.40625 -15.40625 C 17.40625 -14.6875 17.175781 -14.078125 16.71875 -13.578125 C 16.269531 -13.078125 15.648438 -12.828125 14.859375 -12.828125 C 14.128906 -12.828125 13.53125 -13.054688 13.0625 -13.515625 C 12.59375 -13.984375 12.359375 -14.570312 12.359375 -15.28125 C 12.359375 -15.945312 12.570312 -16.519531 13 -17 C 13.4375 -17.476562 14 -17.71875 14.6875 -17.71875 C 14.78125 -17.71875 14.945312 -17.707031 15.1875 -17.6875 L 15.1875 -17.78125 C 15.019531 -18.050781 14.828125 -18.300781 14.609375 -18.53125 C 14.390625 -18.769531 14.015625 -19.019531 13.484375 -19.28125 C 12.953125 -19.550781 12.359375 -19.6875 11.703125 -19.6875 C 10.523438 -19.6875 9.554688 -19.242188 8.796875 -18.359375 C 8.035156 -17.484375 7.5 -16.347656 7.1875 -14.953125 C 6.882812 -13.554688 6.734375 -11.90625 6.734375 -10 C 6.734375 -3.851562 8.375 -0.78125 11.65625 -0.78125 C 12.082031 -0.78125 12.476562 -0.816406 12.84375 -0.890625 C 13.21875 -0.960938 13.65625 -1.101562 14.15625 -1.3125 C 14.65625 -1.53125 15.148438 -1.890625 15.640625 -2.390625 C 16.140625 -2.898438 16.613281 -3.546875 17.0625 -4.328125 L 17.84375 -3.859375 C 16.207031 -0.890625 13.859375 0.59375 10.796875 0.59375 C 4.679688 0.59375 1.625 -2.910156 1.625 -9.921875 Z M 1.625 -9.921875 "/></g></g></g><g fill="#eae6e5" fill-opacity="0.502"><g transform="translate(121.607757, 55.66527)"><g><path d="M 0.8125 -27.78125 L 5 -28.21875 L 7.828125 -28.96875 L 8.1875 -28.390625 L 8.1875 -1.015625 L 10.25 -0.8125 L 10.25 0 L 1.21875 0 L 1.21875 -0.8125 L 3.28125 -1.015625 L 3.28125 -27 L 0.859375 -26.96875 Z M 8.1875 -10.4375 L 8.1875 -10.9375 L 15.96875 -19.046875 L 13.71875 -19.265625 L 13.71875 -20.078125 L 19.703125 -20.078125 L 19.703125 -19.265625 L 17.4375 -19.046875 L 11.703125 -12.9375 L 19.75 -1.015625 L 21.828125 -0.8125 L 21.828125 0 L 12.65625 0 L 12.65625 -0.8125 L 14.28125 -1.015625 Z M 8.1875 -10.4375 "/></g></g></g><g fill="#eae6e5" fill-opacity="1"><g transform="translate(66.579848, 54.868436)"><g><path d="M 0.703125 -18.484375 L 0.703125 -19.296875 L 4.875 -19.75 L 7.703125 -20.484375 L 8.078125 -19.90625 L 8.078125 -5.46875 C 8.078125 -4.675781 8.160156 -4 8.328125 -3.4375 C 8.492188 -2.875 8.679688 -2.457031 8.890625 -2.1875 C 9.097656 -1.914062 9.359375 -1.703125 9.671875 -1.546875 C 9.984375 -1.390625 10.222656 -1.300781 10.390625 -1.28125 C 10.566406 -1.269531 10.765625 -1.265625 10.984375 -1.265625 C 11.910156 -1.265625 12.765625 -1.851562 13.546875 -3.03125 C 14.328125 -4.207031 14.71875 -5.65625 14.71875 -7.375 L 14.71875 -18.484375 L 12.265625 -18.484375 L 12.265625 -19.296875 L 16.4375 -19.75 L 19.265625 -20.484375 L 19.625 -19.90625 L 19.625 -1.015625 L 21.6875 -0.8125 L 21.6875 0 L 15.40625 0 L 14.796875 -3.078125 L 14.71875 -3.078125 C 14.375 -2.578125 14.046875 -2.148438 13.734375 -1.796875 C 13.429688 -1.441406 13.046875 -1.0625 12.578125 -0.65625 C 12.109375 -0.25 11.570312 0.0546875 10.96875 0.265625 C 10.363281 0.484375 9.710938 0.59375 9.015625 0.59375 C 8.535156 0.59375 8.066406 0.550781 7.609375 0.46875 C 7.160156 0.394531 6.648438 0.222656 6.078125 -0.046875 C 5.515625 -0.316406 5.03125 -0.679688 4.625 -1.140625 C 4.21875 -1.609375 3.867188 -2.257812 3.578125 -3.09375 C 3.296875 -3.925781 3.15625 -4.898438 3.15625 -6.015625 L 3.15625 -18.484375 Z M 0.703125 -18.484375 "/></g></g></g><g fill="#eae6e5" fill-opacity="1"><g transform="translate(89.671472, 54.868436)"><g><path d="M 1.140625 -18.484375 L 1.140625 -19.296875 L 5.328125 -19.75 L 8.140625 -20.484375 L 8.5 -19.90625 L 8.5 -1.015625 L 10.5625 -0.8125 L 10.5625 0 L 1.546875 0 L 1.546875 -0.8125 L 3.59375 -1.015625 L 3.59375 -18.484375 Z M 3.328125 -27.578125 C 3.328125 -27.953125 3.394531 -28.300781 3.53125 -28.625 C 3.664062 -28.945312 3.851562 -29.226562 4.09375 -29.46875 C 4.34375 -29.707031 4.625 -29.890625 4.9375 -30.015625 C 5.257812 -30.148438 5.601562 -30.21875 5.96875 -30.21875 C 6.320312 -30.21875 6.660156 -30.148438 6.984375 -30.015625 C 7.304688 -29.878906 7.585938 -29.691406 7.828125 -29.453125 C 8.078125 -29.210938 8.269531 -28.929688 8.40625 -28.609375 C 8.550781 -28.285156 8.625 -27.941406 8.625 -27.578125 C 8.625 -27.222656 8.550781 -26.882812 8.40625 -26.5625 C 8.269531 -26.238281 8.082031 -25.953125 7.84375 -25.703125 C 7.601562 -25.460938 7.320312 -25.269531 7 -25.125 C 6.675781 -24.988281 6.332031 -24.921875 5.96875 -24.921875 C 5.59375 -24.921875 5.242188 -24.988281 4.921875 -25.125 C 4.597656 -25.269531 4.316406 -25.460938 4.078125 -25.703125 C 3.835938 -25.941406 3.648438 -26.222656 3.515625 -26.546875 C 3.390625 -26.867188 3.328125 -27.210938 3.328125 -27.578125 Z M 3.328125 -27.578125 "/></g></g></g><g fill="#eae6e5" fill-opacity="1"><g transform="translate(101.640293, 54.868436)"><g><path d="M 1.625 -9.921875 C 1.625 -10.910156 1.734375 -11.894531 1.953125 -12.875 C 2.179688 -13.863281 2.546875 -14.828125 3.046875 -15.765625 C 3.546875 -16.710938 4.148438 -17.546875 4.859375 -18.265625 C 5.578125 -18.992188 6.460938 -19.578125 7.515625 -20.015625 C 8.578125 -20.460938 9.726562 -20.6875 10.96875 -20.6875 C 12.820312 -20.6875 14.359375 -20.164062 15.578125 -19.125 C 16.796875 -18.082031 17.40625 -16.84375 17.40625 -15.40625 C 17.40625 -14.6875 17.175781 -14.078125 16.71875 -13.578125 C 16.269531 -13.078125 15.648438 -12.828125 14.859375 -12.828125 C 14.128906 -12.828125 13.53125 -13.054688 13.0625 -13.515625 C 12.59375 -13.984375 12.359375 -14.570312 12.359375 -15.28125 C 12.359375 -15.945312 12.570312 -16.519531 13 -17 C 13.4375 -17.476562 14 -17.71875 14.6875 -17.71875 C 14.78125 -17.71875 14.945312 -17.707031 15.1875 -17.6875 L 15.1875 -17.78125 C 15.019531 -18.050781 14.828125 -18.300781 14.609375 -18.53125 C 14.390625 -18.769531 14.015625 -19.019531 13.484375 -19.28125 C 12.953125 -19.550781 12.359375 -19.6875 11.703125 -19.6875 C 10.523438 -19.6875 9.554688 -19.242188 8.796875 -18.359375 C 8.035156 -17.484375 7.5 -16.347656 7.1875 -14.953125 C 6.882812 -13.554688 6.734375 -11.90625 6.734375 -10 C 6.734375 -3.851562 8.375 -0.78125 11.65625 -0.78125 C 12.082031 -0.78125 12.476562 -0.816406 12.84375 -0.890625 C 13.21875 -0.960938 13.65625 -1.101562 14.15625 -1.3125 C 14.65625 -1.53125 15.148438 -1.890625 15.640625 -2.390625 C 16.140625 -2.898438 16.613281 -3.546875 17.0625 -4.328125 L 17.84375 -3.859375 C 16.207031 -0.890625 13.859375 0.59375 10.796875 0.59375 C 4.679688 0.59375 1.625 -2.910156 1.625 -9.921875 Z M 1.625 -9.921875 "/></g></g></g><g fill="#eae6e5" fill-opacity="1"><g transform="translate(120.810926, 54.868436)"><g><path d="M 0.8125 -27.78125 L 5 -28.21875 L 7.828125 -28.96875 L 8.1875 -28.390625 L 8.1875 -1.015625 L 10.25 -0.8125 L 10.25 0 L 1.21875 0 L 1.21875 -0.8125 L 3.28125 -1.015625 L 3.28125 -27 L 0.859375 -26.96875 Z M 8.1875 -10.4375 L 8.1875 -10.9375 L 15.96875 -19.046875 L 13.71875 -19.265625 L 13.71875 -20.078125 L 19.703125 -20.078125 L 19.703125 -19.265625 L 17.4375 -19.046875 L 11.703125 -12.9375 L 19.75 -1.015625 L 21.828125 -0.8125 L 21.828125 0 L 12.65625 0 L 12.65625 -0.8125 L 14.28125 -1.015625 Z M 8.1875 -10.4375 "/></g></g></g><g fill="#eae6e5" fill-opacity="0.502"><g transform="translate(143.461072, 55.66527)"><g/></g></g><g fill="#eae6e5" fill-opacity="1"><g transform="translate(142.664241, 54.868436)"><g/></g></g><g fill="#8f8073" fill-opacity="1"><g transform="translate(75.134143, 83.271121)"><g/></g></g><g fill="#8f8073" fill-opacity="1"><g transform="translate(81.63458, 83.271121)"><g><path d="M 1 0 L 1 -0.609375 L 3.109375 -0.75 L 3.109375 -18.75 L 1 -18.890625 L 1 -19.5 L 7.890625 -19.5 C 9.734375 -19.5 11.316406 -19.265625 12.640625 -18.796875 C 13.960938 -18.335938 15.007812 -17.664062 15.78125 -16.78125 C 16.550781 -15.894531 17.109375 -14.867188 17.453125 -13.703125 C 17.804688 -12.535156 17.984375 -11.1875 17.984375 -9.65625 C 17.984375 -8.550781 17.867188 -7.523438 17.640625 -6.578125 C 17.410156 -5.628906 17.046875 -4.742188 16.546875 -3.921875 C 16.054688 -3.109375 15.4375 -2.410156 14.6875 -1.828125 C 13.945312 -1.253906 13.035156 -0.804688 11.953125 -0.484375 C 10.878906 -0.160156 9.671875 0 8.328125 0 Z M 6.59375 -0.890625 C 7.09375 -0.796875 7.539062 -0.75 7.9375 -0.75 C 8.863281 -0.75 9.6875 -0.898438 10.40625 -1.203125 C 11.132812 -1.503906 11.742188 -1.921875 12.234375 -2.453125 C 12.722656 -2.984375 13.125 -3.632812 13.4375 -4.40625 C 13.757812 -5.175781 13.988281 -6.007812 14.125 -6.90625 C 14.269531 -7.8125 14.34375 -8.800781 14.34375 -9.875 C 14.34375 -10.9375 14.289062 -11.878906 14.1875 -12.703125 C 14.09375 -13.535156 13.90625 -14.34375 13.625 -15.125 C 13.351562 -15.90625 12.988281 -16.550781 12.53125 -17.0625 C 12.070312 -17.570312 11.46875 -17.976562 10.71875 -18.28125 C 9.976562 -18.59375 9.109375 -18.75 8.109375 -18.75 C 7.597656 -18.75 7.09375 -18.703125 6.59375 -18.609375 Z M 6.59375 -0.890625 "/></g></g></g><g fill="#8f8073" fill-opacity="1"><g transform="translate(101.176164, 83.271121)"><g><path d="M 0.78125 -12.625 L 0.78125 -13.1875 L 3.640625 -13.484375 L 5.5625 -14 L 5.8125 -13.59375 L 5.8125 -0.703125 L 7.21875 -0.5625 L 7.21875 0 L 1.046875 0 L 1.046875 -0.5625 L 2.453125 -0.703125 L 2.453125 -12.625 Z M 2.265625 -18.84375 C 2.265625 -19.09375 2.3125 -19.328125 2.40625 -19.546875 C 2.507812 -19.765625 2.640625 -19.957031 2.796875 -20.125 C 2.960938 -20.289062 3.15625 -20.414062 3.375 -20.5 C 3.59375 -20.59375 3.828125 -20.640625 4.078125 -20.640625 C 4.316406 -20.640625 4.546875 -20.59375 4.765625 -20.5 C 4.984375 -20.40625 5.175781 -20.273438 5.34375 -20.109375 C 5.519531 -19.953125 5.65625 -19.765625 5.75 -19.546875 C 5.84375 -19.328125 5.890625 -19.09375 5.890625 -18.84375 C 5.890625 -18.59375 5.84375 -18.359375 5.75 -18.140625 C 5.65625 -17.921875 5.523438 -17.726562 5.359375 -17.5625 C 5.191406 -17.394531 5 -17.265625 4.78125 -17.171875 C 4.5625 -17.078125 4.328125 -17.03125 4.078125 -17.03125 C 3.816406 -17.03125 3.578125 -17.078125 3.359375 -17.171875 C 3.140625 -17.265625 2.945312 -17.390625 2.78125 -17.546875 C 2.625 -17.710938 2.5 -17.90625 2.40625 -18.125 C 2.3125 -18.34375 2.265625 -18.582031 2.265625 -18.84375 Z M 2.265625 -18.84375 "/></g></g></g><g fill="#8f8073" fill-opacity="1"><g transform="translate(109.350401, 83.271121)"><g><path d="M 1.109375 -6.78125 C 1.109375 -7.445312 1.1875 -8.117188 1.34375 -8.796875 C 1.5 -9.472656 1.742188 -10.128906 2.078125 -10.765625 C 2.421875 -11.410156 2.835938 -11.984375 3.328125 -12.484375 C 3.816406 -12.984375 4.421875 -13.378906 5.140625 -13.671875 C 5.859375 -13.972656 6.640625 -14.125 7.484375 -14.125 C 8.753906 -14.125 9.804688 -13.769531 10.640625 -13.0625 C 11.472656 -12.351562 11.890625 -11.503906 11.890625 -10.515625 C 11.890625 -10.023438 11.734375 -9.609375 11.421875 -9.265625 C 11.109375 -8.929688 10.6875 -8.765625 10.15625 -8.765625 C 9.65625 -8.765625 9.242188 -8.921875 8.921875 -9.234375 C 8.597656 -9.554688 8.4375 -9.957031 8.4375 -10.4375 C 8.4375 -10.894531 8.582031 -11.285156 8.875 -11.609375 C 9.175781 -11.941406 9.5625 -12.109375 10.03125 -12.109375 C 10.09375 -12.109375 10.207031 -12.097656 10.375 -12.078125 L 10.375 -12.140625 C 10.257812 -12.328125 10.125 -12.5 9.96875 -12.65625 C 9.820312 -12.820312 9.566406 -12.992188 9.203125 -13.171875 C 8.835938 -13.359375 8.4375 -13.453125 8 -13.453125 C 7.195312 -13.453125 6.535156 -13.148438 6.015625 -12.546875 C 5.492188 -11.941406 5.128906 -11.160156 4.921875 -10.203125 C 4.710938 -9.253906 4.609375 -8.128906 4.609375 -6.828125 C 4.609375 -2.628906 5.726562 -0.53125 7.96875 -0.53125 C 8.257812 -0.53125 8.53125 -0.554688 8.78125 -0.609375 C 9.03125 -0.660156 9.328125 -0.757812 9.671875 -0.90625 C 10.015625 -1.050781 10.351562 -1.296875 10.6875 -1.640625 C 11.019531 -1.984375 11.34375 -2.421875 11.65625 -2.953125 L 12.1875 -2.640625 C 11.0625 -0.609375 9.457031 0.40625 7.375 0.40625 C 3.195312 0.40625 1.109375 -1.988281 1.109375 -6.78125 Z M 1.109375 -6.78125 "/></g></g></g><g fill="#8f8073" fill-opacity="1"><g transform="translate(122.443203, 83.271121)"><g><path d="M 0.0625 -13.125 L 0.0625 -13.71875 L 2.390625 -13.71875 L 2.390625 -16.734375 L 3.5625 -16.859375 L 5.5 -17.375 L 5.75 -16.96875 L 5.75 -13.71875 L 8.75 -13.71875 L 8.75 -13.125 L 5.75 -13.015625 L 5.75 -3.390625 C 5.75 -2.835938 5.816406 -2.375 5.953125 -2 C 6.085938 -1.632812 6.257812 -1.378906 6.46875 -1.234375 C 6.6875 -1.097656 6.859375 -1.007812 6.984375 -0.96875 C 7.117188 -0.9375 7.257812 -0.921875 7.40625 -0.921875 C 7.6875 -0.921875 7.957031 -0.984375 8.21875 -1.109375 C 8.476562 -1.234375 8.710938 -1.414062 8.921875 -1.65625 C 9.140625 -1.894531 9.316406 -2.109375 9.453125 -2.296875 C 9.585938 -2.492188 9.742188 -2.734375 9.921875 -3.015625 L 10.5 -2.671875 C 10.019531 -1.867188 9.601562 -1.285156 9.25 -0.921875 C 8.382812 -0.0351562 7.390625 0.40625 6.265625 0.40625 C 5.828125 0.40625 5.441406 0.375 5.109375 0.3125 C 4.785156 0.257812 4.441406 0.140625 4.078125 -0.046875 C 3.722656 -0.242188 3.425781 -0.503906 3.1875 -0.828125 C 2.957031 -1.148438 2.765625 -1.59375 2.609375 -2.15625 C 2.460938 -2.726562 2.390625 -3.398438 2.390625 -4.171875 L 2.390625 -13.015625 Z M 0.0625 -13.125 "/></g></g></g><g fill="#8f8073" fill-opacity="1"><g transform="translate(132.899113, 83.271121)"><g><path d="M 0.78125 -12.625 L 0.78125 -13.1875 L 3.640625 -13.484375 L 5.5625 -14 L 5.8125 -13.59375 L 5.8125 -0.703125 L 7.21875 -0.5625 L 7.21875 0 L 1.046875 0 L 1.046875 -0.5625 L 2.453125 -0.703125 L 2.453125 -12.625 Z M 2.265625 -18.84375 C 2.265625 -19.09375 2.3125 -19.328125 2.40625 -19.546875 C 2.507812 -19.765625 2.640625 -19.957031 2.796875 -20.125 C 2.960938 -20.289062 3.15625 -20.414062 3.375 -20.5 C 3.59375 -20.59375 3.828125 -20.640625 4.078125 -20.640625 C 4.316406 -20.640625 4.546875 -20.59375 4.765625 -20.5 C 4.984375 -20.40625 5.175781 -20.273438 5.34375 -20.109375 C 5.519531 -19.953125 5.65625 -19.765625 5.75 -19.546875 C 5.84375 -19.328125 5.890625 -19.09375 5.890625 -18.84375 C 5.890625 -18.59375 5.84375 -18.359375 5.75 -18.140625 C 5.65625 -17.921875 5.523438 -17.726562 5.359375 -17.5625 C 5.191406 -17.394531 5 -17.265625 4.78125 -17.171875 C 4.5625 -17.078125 4.328125 -17.03125 4.078125 -17.03125 C 3.816406 -17.03125 3.578125 -17.078125 3.359375 -17.171875 C 3.140625 -17.265625 2.945312 -17.390625 2.78125 -17.546875 C 2.625 -17.710938 2.5 -17.90625 2.40625 -18.125 C 2.3125 -18.34375 2.265625 -18.582031 2.265625 -18.84375 Z M 2.265625 -18.84375 "/></g></g></g><g fill="#8f8073" fill-opacity="1"><g transform="translate(141.07335, 83.271121)"><g><path d="M 1.09375 -6.78125 C 1.09375 -8.15625 1.359375 -9.398438 1.890625 -10.515625 C 2.421875 -11.640625 3.164062 -12.519531 4.125 -13.15625 C 5.09375 -13.800781 6.179688 -14.125 7.390625 -14.125 C 8.390625 -14.125 9.289062 -13.914062 10.09375 -13.5 C 10.90625 -13.09375 11.554688 -12.539062 12.046875 -11.84375 C 12.535156 -11.15625 12.910156 -10.382812 13.171875 -9.53125 C 13.429688 -8.675781 13.5625 -7.785156 13.5625 -6.859375 C 13.5625 -5.515625 13.304688 -4.289062 12.796875 -3.1875 C 12.285156 -2.09375 11.550781 -1.21875 10.59375 -0.5625 C 9.644531 0.0820312 8.566406 0.40625 7.359375 0.40625 C 6.296875 0.40625 5.359375 0.21875 4.546875 -0.15625 C 3.734375 -0.53125 3.078125 -1.050781 2.578125 -1.71875 C 2.078125 -2.394531 1.703125 -3.15625 1.453125 -4 C 1.210938 -4.851562 1.09375 -5.78125 1.09375 -6.78125 Z M 4.59375 -6.9375 C 4.59375 -5.925781 4.640625 -5.019531 4.734375 -4.21875 C 4.835938 -3.425781 4.992188 -2.722656 5.203125 -2.109375 C 5.410156 -1.492188 5.691406 -1.019531 6.046875 -0.6875 C 6.410156 -0.363281 6.832031 -0.203125 7.3125 -0.203125 C 9.144531 -0.203125 10.0625 -2.394531 10.0625 -6.78125 C 10.0625 -7.882812 10.015625 -8.832031 9.921875 -9.625 C 9.835938 -10.414062 9.691406 -11.113281 9.484375 -11.71875 C 9.285156 -12.320312 9.003906 -12.769531 8.640625 -13.0625 C 8.273438 -13.363281 7.832031 -13.515625 7.3125 -13.515625 C 6.832031 -13.515625 6.410156 -13.347656 6.046875 -13.015625 C 5.691406 -12.691406 5.410156 -12.226562 5.203125 -11.625 C 4.992188 -11.019531 4.835938 -10.332031 4.734375 -9.5625 C 4.640625 -8.789062 4.59375 -7.914062 4.59375 -6.9375 Z M 4.59375 -6.9375 "/></g></g></g><g fill="#8f8073" fill-opacity="1"><g transform="translate(155.873991, 83.271121)"><g><path d="M 0.765625 -13.1875 L 3.625 -13.484375 L 5.546875 -14 L 5.796875 -13.59375 L 5.734375 -11.75 L 5.796875 -11.75 C 6.878906 -13.332031 8.28125 -14.125 10 -14.125 C 10.332031 -14.125 10.644531 -14.097656 10.9375 -14.046875 C 11.238281 -13.992188 11.570312 -13.867188 11.9375 -13.671875 C 12.300781 -13.484375 12.613281 -13.234375 12.875 -12.921875 C 13.144531 -12.617188 13.367188 -12.175781 13.546875 -11.59375 C 13.734375 -11.019531 13.828125 -10.351562 13.828125 -9.59375 L 13.828125 -0.703125 L 15.21875 -0.5625 L 15.21875 0 L 9.078125 0 L 9.078125 -0.5625 L 10.46875 -0.703125 L 10.46875 -9.984375 C 10.46875 -11.929688 9.84375 -12.90625 8.59375 -12.90625 C 7.769531 -12.90625 7.097656 -12.53125 6.578125 -11.78125 C 6.054688 -11.03125 5.796875 -10.050781 5.796875 -8.84375 L 5.796875 -0.703125 L 7.203125 -0.5625 L 7.203125 0 L 1.03125 0 L 1.03125 -0.5625 L 2.453125 -0.703125 L 2.453125 -12.65625 L 0.796875 -12.625 Z M 0.765625 -13.1875 "/></g></g></g><g fill="#8f8073" fill-opacity="1"><g transform="translate(171.945256, 83.271121)"><g><path d="M 0.984375 -2.96875 C 0.984375 -3.414062 1.050781 -3.84375 1.1875 -4.25 C 1.332031 -4.664062 1.5625 -5.066406 1.875 -5.453125 C 2.195312 -5.835938 2.585938 -6.171875 3.046875 -6.453125 C 3.515625 -6.734375 4.09375 -6.957031 4.78125 -7.125 C 5.476562 -7.289062 6.242188 -7.375 7.078125 -7.375 C 7.523438 -7.375 7.945312 -7.359375 8.34375 -7.328125 L 8.34375 -9.203125 C 8.34375 -9.804688 8.332031 -10.296875 8.3125 -10.671875 C 8.289062 -11.046875 8.234375 -11.429688 8.140625 -11.828125 C 8.046875 -12.222656 7.914062 -12.523438 7.75 -12.734375 C 7.582031 -12.953125 7.347656 -13.128906 7.046875 -13.265625 C 6.742188 -13.410156 6.375 -13.484375 5.9375 -13.484375 C 4.601562 -13.484375 3.628906 -12.960938 3.015625 -11.921875 L 3.015625 -11.859375 C 3.171875 -11.890625 3.3125 -11.90625 3.4375 -11.90625 C 3.914062 -11.90625 4.289062 -11.757812 4.5625 -11.46875 C 4.832031 -11.175781 4.96875 -10.753906 4.96875 -10.203125 C 4.96875 -9.734375 4.800781 -9.335938 4.46875 -9.015625 C 4.144531 -8.691406 3.738281 -8.53125 3.25 -8.53125 C 2.71875 -8.53125 2.296875 -8.710938 1.984375 -9.078125 C 1.671875 -9.441406 1.515625 -9.867188 1.515625 -10.359375 C 1.515625 -11.429688 2.007812 -12.328125 3 -13.046875 C 3.988281 -13.765625 5.125 -14.125 6.40625 -14.125 C 7.320312 -14.125 8.097656 -14.03125 8.734375 -13.84375 C 9.378906 -13.65625 9.890625 -13.398438 10.265625 -13.078125 C 10.648438 -12.765625 10.945312 -12.335938 11.15625 -11.796875 C 11.375 -11.253906 11.519531 -10.703125 11.59375 -10.140625 C 11.664062 -9.578125 11.703125 -8.882812 11.703125 -8.0625 L 11.703125 -0.703125 L 13.109375 -0.5625 L 13.109375 0 L 8.765625 0 L 8.375 -2.15625 L 8.34375 -2.15625 C 7.894531 -1.289062 7.351562 -0.644531 6.71875 -0.21875 C 6.09375 0.195312 5.328125 0.40625 4.421875 0.40625 C 3.316406 0.40625 2.46875 0.078125 1.875 -0.578125 C 1.28125 -1.242188 0.984375 -2.039062 0.984375 -2.96875 Z M 4.296875 -3.25 C 4.296875 -2.519531 4.429688 -1.929688 4.703125 -1.484375 C 4.972656 -1.035156 5.375 -0.8125 5.90625 -0.8125 C 6.519531 -0.8125 7.078125 -1.195312 7.578125 -1.96875 C 8.085938 -2.738281 8.34375 -3.6875 8.34375 -4.8125 L 8.34375 -6.703125 C 7.976562 -6.742188 7.679688 -6.765625 7.453125 -6.765625 C 6.984375 -6.765625 6.5625 -6.695312 6.1875 -6.5625 C 5.820312 -6.4375 5.53125 -6.265625 5.3125 -6.046875 C 5.09375 -5.828125 4.910156 -5.597656 4.765625 -5.359375 C 4.617188 -5.117188 4.515625 -4.851562 4.453125 -4.5625 C 4.390625 -4.269531 4.347656 -4.023438 4.328125 -3.828125 C 4.304688 -3.640625 4.296875 -3.445312 4.296875 -3.25 Z M 4.296875 -3.25 "/></g></g></g><g fill="#8f8073" fill-opacity="1"><g transform="translate(185.84416, 83.271121)"><g><path d="M 0.78125 -12.625 L 0.78125 -13.1875 L 3.640625 -13.484375 L 5.5625 -14 L 5.75 -13.59375 L 5.75 -11.25 L 5.8125 -11.25 C 5.988281 -11.613281 6.207031 -11.96875 6.46875 -12.3125 C 6.738281 -12.65625 7.03125 -12.960938 7.34375 -13.234375 C 7.65625 -13.503906 7.988281 -13.71875 8.34375 -13.875 C 8.695312 -14.039062 9.054688 -14.125 9.421875 -14.125 C 10.140625 -14.125 10.691406 -13.9375 11.078125 -13.5625 C 11.460938 -13.1875 11.65625 -12.679688 11.65625 -12.046875 C 11.65625 -11.785156 11.613281 -11.539062 11.53125 -11.3125 C 11.445312 -11.09375 11.328125 -10.898438 11.171875 -10.734375 C 11.023438 -10.578125 10.84375 -10.445312 10.625 -10.34375 C 10.414062 -10.25 10.1875 -10.203125 9.9375 -10.203125 C 9.664062 -10.203125 9.421875 -10.25 9.203125 -10.34375 C 8.984375 -10.4375 8.796875 -10.554688 8.640625 -10.703125 C 8.492188 -10.859375 8.378906 -11.039062 8.296875 -11.25 C 8.210938 -11.457031 8.171875 -11.679688 8.171875 -11.921875 C 8.171875 -12.398438 8.269531 -12.753906 8.46875 -12.984375 L 8.46875 -13.0625 C 8.144531 -12.988281 7.820312 -12.816406 7.5 -12.546875 C 7.1875 -12.273438 6.898438 -11.898438 6.640625 -11.421875 C 6.390625 -10.953125 6.1875 -10.390625 6.03125 -9.734375 C 5.882812 -9.078125 5.8125 -8.332031 5.8125 -7.5 L 5.8125 -0.703125 L 7.21875 -0.5625 L 7.21875 0 L 1.046875 0 L 1.046875 -0.5625 L 2.453125 -0.703125 L 2.453125 -12.625 Z M 0.78125 -12.625 "/></g></g></g><g fill="#8f8073" fill-opacity="1"><g transform="translate(197.871272, 83.271121)"><g><path d="M 1.09375 4.734375 C 1.09375 4.203125 1.253906 3.753906 1.578125 3.390625 C 1.898438 3.023438 2.304688 2.84375 2.796875 2.84375 C 3.328125 2.84375 3.726562 3.003906 4 3.328125 C 4.269531 3.660156 4.40625 4.066406 4.40625 4.546875 C 4.40625 4.734375 4.347656 4.953125 4.234375 5.203125 C 4.117188 5.460938 3.96875 5.65625 3.78125 5.78125 L 3.78125 5.828125 C 4.101562 5.828125 4.40625 5.71875 4.6875 5.5 C 4.96875 5.28125 5.222656 4.96875 5.453125 4.5625 C 5.679688 4.164062 5.851562 3.832031 5.96875 3.5625 C 6.09375 3.289062 6.226562 2.953125 6.375 2.546875 L 7 0.46875 L 1.1875 -13.015625 L -0.15625 -13.15625 L -0.15625 -13.71875 L 6.296875 -13.71875 L 6.296875 -13.15625 L 4.828125 -13.015625 L 8.375 -4.09375 L 11.046875 -13.015625 L 9.546875 -13.15625 L 9.546875 -13.71875 L 13.265625 -13.71875 L 13.265625 -13.15625 L 11.84375 -13.015625 L 7.3125 2.34375 C 6.988281 3.28125 6.660156 4.054688 6.328125 4.671875 C 5.992188 5.296875 5.65625 5.75 5.3125 6.03125 C 4.96875 6.320312 4.648438 6.515625 4.359375 6.609375 C 4.066406 6.710938 3.742188 6.765625 3.390625 6.765625 C 2.703125 6.765625 2.144531 6.570312 1.71875 6.1875 C 1.300781 5.800781 1.09375 5.316406 1.09375 4.734375 Z M 1.09375 4.734375 "/></g></g></g></svg>